<svg xmlns="http://www.w3.org/2000/svg" viewBox="0 0 1535.46 468.14" role="img" aria-label="SPX IA"><g><path fill="#FEFEFE" d="M811.25 206.4l99.57 0 0 7.36c0,17.2 1.97,32.12 6.01,44.87 20.2,41.34 50.98,61.96 92.32,61.96l1.14 0 2.49 -2.38 0 -89.94c0,-25.08 -10.98,-47.77 -32.85,-67.97 21.86,-20.83 32.85,-42.28 32.85,-64.35l0 -93.46 -2.49 -2.49c-13.68,0 -27.87,3.21 -42.48,9.74 -38.02,17 -56.99,49.43 -56.99,97.09l0 7.36 -99.57 0 0 -7.36c0,-17.72 -2.07,-32.74 -6.11,-44.86 -20.62,-41.34 -51.81,-61.96 -93.46,-61.96l-2.49 2.49 0 89.84c0,25.7 11.4,48.8 33.99,69.21 -22.59,17.2 -33.99,39.48 -33.99,66.73l0 89.94 2.49 2.38 1.14 0c14.19,0 27.15,-2.8 38.85,-8.5 39.69,-15.23 59.58,-48.8 59.58,-100.82l0 -4.87z"/><path fill="#FEFEFE" d="M336.34 179.67c-17.62,-43.73 -48.81,-65.59 -93.56,-65.59l-145.68 0 0 -23 149.31 0c13.36,0 25.9,-2.9 37.72,-8.49 37.2,-18.86 55.85,-44.76 55.85,-77.71l0 -3.73 -1.24 -1.14 -239.25 1.14 -2.38 0c-11.71,0 -20.62,1.24 -26.73,3.73 -46.94,16.58 -70.36,45.28 -70.36,86.21l0 21.86c0,15.13 2.8,28.08 8.5,38.86 20.62,35.54 48.91,53.36 84.96,53.36l149.31 0 0 21.86 -241.63 0 -1.14 1.25c0,9.84 1.56,19.58 4.77,29.11 19.69,40.51 49.21,60.72 88.69,60.72l152.94 0c13.36,0 25.9,-2.8 37.72,-8.5 37.2,-18.86 55.85,-44.76 55.85,-77.71l0 -27.98c0,-10.26 -1.24,-18.34 -3.62,-24.24z"/><path fill="#FEFEFE" d="M601.37 152.63c-4.66,82.98 -64.04,84.95 -131.72,82.79 -27.96,-1.03 -29.33,0.43 -29.79,-27.6 -0.42,-25.06 -0.81,-61.83 12.6,-83.66 25.43,-41.39 62.39,-39.83 105.22,-41.42 14.61,-0.55 38.14,-4.2 43.02,12.85 2.88,13.67 1.47,42.66 0.67,57.04zm-240.42 56.26l-1.24 248.26 1.24 0 1.24 1.24 3.62 0 18.24 -2.38c44.45,-17.41 66.73,-46.63 66.73,-87.45l0 -44.35 76.57 0c36.58,0 71.81,-15.75 105.58,-47.35 29.95,-32.74 44.97,-67.97 44.97,-105.58l0 -168.79 -2.48 -2.49 -161.43 0c-26.73,0 -54.29,8.91 -82.58,26.73 -46.94,35.44 -70.46,77.51 -70.46,126.31l0 55.85z"/><text x="1007.48" y="285.1" fill="#ED3237" style="font-weight:bold;font-size:348.63px;font-family:Arial">IA</text><text x="532.76" y="401.28" fill="#FEFEFE" style="font-weight:normal;font-size:66.33px;font-family:Atlanta, serif">Intelligence and Automation</text><path fill="#ED3237" d="M910.85 114.19l0 92.22 0.14 0 0 7.36c0,17.2 1.97,32.12 6.01,44.87 20.2,41.34 50.98,61.96 92.32,61.96l1.14 0 2.49 -2.38 0 -89.94c0,-25.08 -10.98,-47.77 -32.85,-67.97 21.86,-20.83 32.85,-42.28 32.85,-64.35l0 -93.46 -2.49 -2.49c-13.68,0 -27.87,3.21 -42.48,9.74 -38.02,17 -56.99,49.43 -56.99,97.09l0 7.36 -0.14 0z"/><path fill="#ED3237" d="M1479 206.4l0 -92.22 -0.14 0 0 -7.36c0,-17.2 -1.97,-32.12 -6.01,-44.87 -20.2,-41.34 -50.98,-61.96 -92.32,-61.96l-1.14 0 -2.49 2.38 0 89.94c0,25.08 10.98,47.77 32.85,67.97 -21.86,20.83 -32.85,42.28 -32.85,64.35l0 93.46 2.49 2.49c13.68,0 27.87,-3.21 42.48,-9.74 38.02,-17 56.99,-49.43 56.99,-97.09l0 -7.36 0.14 0z"/></g></svg>
